<svg xmlns="http://www.w3.org/2000/svg" width="153" height="100" fill="none" viewBox="0 0 153 100">
    <path fill="#EE4D64" d="M18.692 90.015c-.787.943-1.9 1.677-3.339 2.202-1.438.515-3.033.773-4.782.773-1.837 0-3.45-.399-4.84-1.196-1.381-.807-2.45-1.973-3.209-3.5-.748-1.525-1.132-3.319-1.151-5.38v-1.443c0-2.119.354-3.951 1.064-5.497.72-1.555 1.75-2.74 3.091-3.557 1.351-.826 2.93-1.24 4.739-1.24 2.517 0 4.486.603 5.905 1.808 1.419 1.196 2.26 2.94 2.522 5.235h-4.257c-.195-1.215-.627-2.105-1.298-2.668-.661-.564-1.575-.846-2.741-.846-1.487 0-2.62.559-3.397 1.677-.778 1.118-1.172 2.78-1.181 4.986v1.356c0 2.226.422 3.908 1.268 5.045.846 1.137 2.085 1.706 3.718 1.706 1.643 0 2.814-.35 3.514-1.05v-3.66h-3.98v-3.222h8.354v8.471zm10.877-8.981l4.418-9.565h4.782L31.8 85v7.7h-4.446v-7.7l-6.97-13.53h4.797l4.39 9.565zm16.855-9.565l5.453 15.397 5.424-15.397h5.745V92.7h-4.389v-5.804l.437-10.017-5.73 15.82h-3.003l-5.716-15.805.438 10.002v5.803h-4.374V71.47h5.715zM71.24 85.22v7.48h-4.374v-21.23h8.281c1.595 0 2.994.292 4.2.875 1.215.583 2.148 1.414 2.8 2.493.65 1.07.976 2.29.976 3.66 0 2.08-.715 3.723-2.143 4.928-1.42 1.196-3.388 1.793-5.905 1.793H71.24zm0-3.544h3.907c1.157 0 2.037-.272 2.64-.816.612-.544.918-1.322.918-2.333 0-1.04-.306-1.88-.918-2.522-.613-.642-1.459-.972-2.538-.992h-4.01v6.663zm32.339.89c0 2.09-.369 3.922-1.108 5.497-.739 1.574-1.798 2.79-3.178 3.645-1.37.855-2.946 1.283-4.724 1.283-1.76 0-3.33-.423-4.71-1.269-1.38-.845-2.45-2.05-3.208-3.616-.758-1.574-1.142-3.382-1.151-5.424v-1.05c0-2.09.374-3.926 1.122-5.51.758-1.595 1.823-2.815 3.193-3.66 1.38-.856 2.955-1.284 4.724-1.284 1.77 0 3.34.428 4.71 1.284 1.38.845 2.445 2.065 3.193 3.66.758 1.584 1.137 3.416 1.137 5.496v.948zm-4.432-.962c0-2.227-.399-3.918-1.196-5.075-.797-1.156-1.934-1.735-3.412-1.735-1.467 0-2.6.574-3.397 1.72-.797 1.138-1.2 2.81-1.21 5.017v1.035c0 2.167.398 3.849 1.196 5.045.797 1.195 1.944 1.793 3.44 1.793 1.468 0 2.596-.574 3.383-1.72.788-1.157 1.186-2.839 1.196-5.045v-1.035zm12.262 11.095h-4.374V71.47h4.374V92.7zm21.331 0h-4.374l-8.515-13.968v13.968h-4.374V71.47h4.374l8.53 13.997V71.47h4.359V92.7zm19.363-17.686H145.6v17.686h-4.374V75.012h-6.415V71.47h17.292v3.543z"/>
    <path fill="#EE4D64" fill-rule="evenodd" d="M119.293 11.825c-1.094 0-2.131.25-3.056.696-.23-3.688-3.303-6.618-7.048-6.618-1.096 0-2.134.25-3.061.698-.263-3.657-3.32-6.552-7.042-6.552a7.071 7.071 0 0 0-7.064 7.063V18.82a2.011 2.011 0 0 0 4.023 0V7.112a3.044 3.044 0 0 1 3.04-3.04 3.044 3.044 0 0 1 3.041 3.04v38.07a3.044 3.044 0 0 1-3.04 3.04 3.044 3.044 0 0 1-3.04-3.04V33.474c0-1.11-.901-2.01-2.012-2.01H66.906a2.011 2.011 0 0 0 0 4.022h25.116v9.696a7.071 7.071 0 0 0 7.064 7.064c3.722 0 6.78-2.896 7.042-6.553a7.021 7.021 0 0 0 3.061.699c3.745 0 6.818-2.93 7.048-6.619a7.021 7.021 0 0 0 3.056.696 7.07 7.07 0 0 0 7.063-7.063V18.888a7.07 7.07 0 0 0-7.063-7.063zm-7.063 27.503a3.044 3.044 0 0 1-3.041 3.041 3.044 3.044 0 0 1-3.04-3.04V12.965a3.044 3.044 0 0 1 3.04-3.04 3.044 3.044 0 0 1 3.041 3.04v26.362zm7.063-2.881a3.044 3.044 0 0 0 3.041-3.04V18.887a3.044 3.044 0 0 0-3.041-3.04 3.044 3.044 0 0 0-3.04 3.04v14.518a3.044 3.044 0 0 0 3.04 3.04z" clip-rule="evenodd"/>
    <path fill="#EE4D64" fill-rule="evenodd" d="M59.031 31.463c-1.11 0-2.01.9-2.01 2.011v11.708a3.044 3.044 0 0 1-3.041 3.04 3.044 3.044 0 0 1-3.041-3.04V7.112a3.044 3.044 0 0 1 3.04-3.04 3.044 3.044 0 0 1 3.041 3.04V18.82c0 1.11.9 2.011 2.011 2.011H86.16a2.011 2.011 0 0 0 0-4.022H61.043V7.112A7.071 7.071 0 0 0 53.98.05c-3.723 0-6.78 2.895-7.043 6.552a7.02 7.02 0 0 0-3.061-.698c-3.745 0-6.818 2.93-7.048 6.618a7.021 7.021 0 0 0-3.056-.696 7.071 7.071 0 0 0-7.063 7.063v14.518a7.071 7.071 0 0 0 7.063 7.063 7.02 7.02 0 0 0 3.056-.696c.23 3.688 3.302 6.618 7.048 6.618a7.02 7.02 0 0 0 3.06-.698c.264 3.657 3.32 6.552 7.044 6.552a7.071 7.071 0 0 0 7.063-7.063V33.474c0-1.11-.9-2.01-2.012-2.01zm-25.259 4.984a3.044 3.044 0 0 1-3.04-3.04V18.887a3.044 3.044 0 0 1 3.04-3.04 3.044 3.044 0 0 1 3.04 3.04v14.518a3.044 3.044 0 0 1-3.04 3.04zm7.063 2.881a3.044 3.044 0 0 0 3.04 3.041 3.044 3.044 0 0 0 3.041-3.04V12.965a3.044 3.044 0 0 0-3.04-3.04 3.044 3.044 0 0 0-3.04 3.04v26.362z" clip-rule="evenodd"/>
    <path fill="#EE4D64" d="M57.014 26.265v.674a2.011 2.011 0 0 0 4.023 0v-.674a2.011 2.011 0 0 0-4.023 0zM96.045 26.041v-.674a2.011 2.011 0 0 0-4.022 0v.674a2.011 2.011 0 1 0 4.022 0z"/>
</svg>
