<svg xmlns="http://www.w3.org/2000/svg" width="135" height="24" fill="none" viewBox="0 0 135 24">
    <path fill="#EE4D64" d="M67.39 15.652c-.396.474-.955.843-1.678 1.106-.722.26-1.523.389-2.402.389-.923 0-1.733-.2-2.432-.601-.693-.405-1.23-.991-1.61-1.758-.377-.767-.57-1.667-.58-2.703v-.725c0-1.064.179-1.985.535-2.76.361-.782.88-1.378 1.553-1.788.679-.415 1.472-.623 2.38-.623 1.265 0 2.254.303 2.967.909.712.6 1.135 1.477 1.267 2.63H65.25c-.098-.611-.315-1.058-.652-1.341-.332-.283-.79-.425-1.377-.425-.747 0-1.316.28-1.706.842-.391.562-.589 1.397-.594 2.505v.681c0 1.118.213 1.963.638 2.534.424.572 1.047.857 1.867.857.825 0 1.414-.175 1.765-.527v-1.838h-2v-1.619h4.198v4.255zm5.463-4.511l2.22-4.805h2.402l-3.5 6.797V17H71.74v-3.867l-3.5-6.797h2.409l2.204 4.805zm8.467-4.805l2.74 7.734 2.724-7.734h2.886V17h-2.205v-2.915l.22-5.032L84.807 17h-1.51l-2.87-7.94.22 5.025V17h-2.198V6.336h2.871zm12.466 6.907V17H91.59V6.336h4.16c.8 0 1.504.146 2.11.44.61.292 1.079.71 1.406 1.252.327.537.49 1.15.49 1.838 0 1.045-.358 1.87-1.076 2.476-.713.6-1.702.9-2.967.9h-1.926zm0-1.78h1.963c.581 0 1.023-.137 1.326-.41.307-.274.461-.664.461-1.172 0-.523-.154-.945-.461-1.267-.308-.323-.733-.489-1.275-.498h-2.014v3.347zm16.245.447c0 1.05-.185 1.97-.556 2.76-.371.792-.904 1.402-1.597 1.832-.689.43-1.48.645-2.373.645-.884 0-1.672-.213-2.366-.638-.693-.425-1.23-1.03-1.611-1.816-.381-.791-.574-1.7-.579-2.725v-.527c0-1.05.188-1.973.564-2.769.381-.8.916-1.413 1.604-1.838.694-.43 1.485-.645 2.373-.645.889 0 1.677.215 2.366.645.693.425 1.228 1.038 1.604 1.838.381.796.571 1.717.571 2.762v.476zm-2.226-.484c0-1.118-.201-1.967-.601-2.549-.4-.58-.972-.871-1.714-.871-.737 0-1.306.288-1.706.864-.401.571-.603 1.411-.608 2.52v.52c0 1.088.2 1.933.6 2.534.401.6.977.9 1.729.9.737 0 1.304-.287 1.699-.864.396-.58.596-1.425.601-2.534v-.52zM113.964 17h-2.197V6.336h2.197V17zm10.716 0h-2.198l-4.277-7.017V17h-2.197V6.336h2.197l4.285 7.031V6.336h2.19V17zm9.726-8.884h-3.266V17h-2.198V8.116h-3.222v-1.78h8.686v1.78z"/>
    <path fill="#EE4D64" fill-rule="evenodd" d="M42.246 5.355a3.18 3.18 0 0 0-1.384.315 3.202 3.202 0 0 0-4.578-2.68A3.202 3.202 0 0 0 33.096.021a3.202 3.202 0 0 0-3.198 3.199v5.301a.91.91 0 0 0 1.822 0V3.221c0-.76.617-1.377 1.376-1.377.76 0 1.377.617 1.377 1.377v17.238c0 .76-.617 1.378-1.377 1.378-.759 0-1.376-.618-1.376-1.377v-5.302a.91.91 0 0 0-.911-.91H18.523a.91.91 0 0 0 0 1.821h11.374v4.39a3.202 3.202 0 0 0 3.198 3.2 3.202 3.202 0 0 0 3.19-2.968c.42.203.89.317 1.386.317a3.202 3.202 0 0 0 3.191-2.997 3.202 3.202 0 0 0 4.582-2.883V8.552a3.202 3.202 0 0 0-3.198-3.198zm-3.198 12.454c0 .76-.618 1.377-1.377 1.377-.76 0-1.377-.618-1.377-1.377V5.871c0-.759.617-1.376 1.377-1.376.759 0 1.377.617 1.377 1.376V17.81zm3.198-1.305c.76 0 1.377-.618 1.377-1.377V8.553c0-.759-.618-1.377-1.377-1.377-.76 0-1.377.618-1.377 1.377v6.574c0 .76.618 1.377 1.377 1.377z" clip-rule="evenodd"/>
    <path fill="#EE4D64" fill-rule="evenodd" d="M14.958 14.247a.91.91 0 0 0-.911.911v5.302c0 .76-.618 1.377-1.377 1.377-.76 0-1.377-.618-1.377-1.377V3.22c0-.76.618-1.377 1.377-1.377.76 0 1.377.617 1.377 1.377v5.301c0 .503.408.911.91.911h12.285a.91.91 0 0 0 0-1.821H15.868V3.22A3.202 3.202 0 0 0 12.67.022 3.202 3.202 0 0 0 9.48 2.99a3.202 3.202 0 0 0-4.578 2.68A3.202 3.202 0 0 0 .321 8.553v6.575a3.202 3.202 0 0 0 4.583 2.884 3.202 3.202 0 0 0 4.578 2.68 3.202 3.202 0 0 0 3.189 2.967 3.202 3.202 0 0 0 3.198-3.198v-5.302a.91.91 0 0 0-.91-.91zM3.519 16.504c-.759 0-1.376-.618-1.376-1.377V8.553c0-.759.617-1.377 1.376-1.377.76 0 1.377.618 1.377 1.377v6.574c0 .76-.617 1.377-1.377 1.377zm3.199 1.305c0 .76.618 1.377 1.377 1.377s1.377-.618 1.377-1.377V5.871c0-.759-.618-1.376-1.377-1.376-.76 0-1.377.617-1.377 1.376V17.81z" clip-rule="evenodd"/>
    <path fill="#EE4D64" d="M14.044 11.893v.306a.91.91 0 0 0 1.822 0v-.306a.91.91 0 0 0-1.822 0zM31.719 11.792v-.305a.91.91 0 0 0-1.822 0v.305a.91.91 0 0 0 1.822 0z"/>
</svg>
